<svg width="28" height="28" viewBox="0 0 28 28" fill="none" xmlns="http://www.w3.org/2000/svg">
<path d="M22.1667 0H5.83333C2.61683 0 0 2.61683 0 5.83333V22.1667C0 25.3832 2.61683 28 5.83333 28H22.1667C25.3832 28 28 25.3832 28 22.1667V5.83333C28 2.61683 25.3832 0 22.1667 0ZM25.6667 22.1667C25.6667 24.0963 24.0963 25.6667 22.1667 25.6667H5.83333C3.90367 25.6667 2.33333 24.0963 2.33333 22.1667V5.83333C2.33333 3.90367 3.90367 2.33333 5.83333 2.33333H22.1667C24.0963 2.33333 25.6667 3.90367 25.6667 5.83333V22.1667ZM22.1667 7V10.5C22.1667 11.7868 21.1202 12.8333 19.8333 12.8333H16.3333C15.6882 12.8333 15.1667 12.3107 15.1667 11.6667C15.1667 11.0227 15.6882 10.5 16.3333 10.5H18.648C17.5583 9.05917 15.8492 8.16667 14 8.16667C11.5313 8.16667 9.3205 9.72883 8.49917 12.0552C8.32883 12.5347 7.87967 12.8333 7.399 12.8333C7.27067 12.8333 7.13883 12.8112 7.0105 12.7657C6.40267 12.551 6.08417 11.8848 6.29883 11.277C7.44917 8.01967 10.5455 5.83217 14.0012 5.83217C16.233 5.83217 18.3202 6.76667 19.8345 8.31367V6.99883C19.8345 6.35483 20.356 5.83217 21.0012 5.83217C21.6463 5.83217 22.1678 6.35483 22.1678 6.99883L22.1667 7ZM21.7023 16.7218C20.552 19.9792 17.4557 22.1667 14 22.1667C11.7682 22.1667 9.681 21.2322 8.16667 19.6852V21C8.16667 21.644 7.64517 22.1667 7 22.1667C6.35483 22.1667 5.83333 21.644 5.83333 21V17.5C5.83333 16.2132 6.87983 15.1667 8.16667 15.1667H11.6667C12.3118 15.1667 12.8333 15.6893 12.8333 16.3333C12.8333 16.9773 12.3118 17.5 11.6667 17.5H9.352C10.4417 18.9408 12.1508 19.8333 14 19.8333C16.4687 19.8333 18.6795 18.2712 19.5008 15.9448C19.7167 15.337 20.3817 15.0185 20.9895 15.2332C21.5973 15.4478 21.917 16.114 21.7023 16.7218Z" fill="#520660"/>
</svg>
