<svg width="29" height="29" viewBox="0 0 29 29" fill="none" xmlns="http://www.w3.org/2000/svg">
<path d="M21.7136 19.3333C21.7136 19.7913 22.0427 20.1768 22.4969 20.2529L26.1886 20.8643C27.8184 21.135 29 22.5245 29 24.1667C29 26.1653 27.3654 27.7917 25.3568 27.7917V29H22.928V27.7917C20.9193 27.7917 19.2848 26.1653 19.2848 24.1667H21.7136C21.7136 24.8337 22.2576 25.375 22.928 25.375H25.3568C26.0271 25.375 26.5712 24.8337 26.5712 24.1667C26.5712 23.7087 26.2421 23.3232 25.7879 23.2471L22.0961 22.6357C20.4664 22.365 19.2848 20.9755 19.2848 19.3333C19.2848 17.3348 20.9193 15.7083 22.928 15.7083V14.5H25.3568V15.7083C27.3654 15.7083 29 17.3348 29 19.3333H26.5712C26.5712 18.6663 26.0271 18.125 25.3568 18.125H22.928C22.2576 18.125 21.7136 18.6663 21.7136 19.3333ZM26.5712 0H20.4992V2.41667H24.854L18.6776 8.56225L11.3911 1.31225L0 12.6464L1.71717 14.355L11.3911 4.72942L18.6776 11.9794L26.5712 4.12525V8.45833H29V2.41667C29 1.08388 27.9107 0 26.5712 0ZM1.06868 29H3.49749V16.0007L1.06868 18.4174V29ZM13.2127 29H15.6415V12.377L13.2127 9.96029V29ZM7.1407 29H9.56951V9.96029L7.1407 12.377V29Z" fill="#520660"/>
</svg>
