<svg width="16" height="16" viewBox="0 0 16 16" fill="none" xmlns="http://www.w3.org/2000/svg" class="social-icon">
<path d="M3.63213 16V5.20483H0.202355V16H3.63213ZM1.91768 3.73004C3.11371 3.73004 3.85817 2.9011 3.85817 1.8652C3.83589 0.805935 3.11375 0 1.94038 0C0.767193 0 0 0.805951 0 1.8652C0 2.90115 0.744282 3.73004 1.89529 3.73004H1.91768ZM5.53049 16H8.96027V9.97145C8.96027 9.64881 8.98255 9.3265 9.07312 9.09586C9.32107 8.45124 9.8854 7.78359 10.8328 7.78359C12.0739 7.78359 12.5704 8.77354 12.5704 10.2247V15.9999H16V9.81007C16 6.49422 14.3079 4.95139 12.0513 4.95139C10.2011 4.95139 9.38876 6.03334 8.93745 6.77025H8.96034V5.2046H5.53057C5.57558 6.21756 5.53049 16 5.53049 16Z" fill="white"/>
</svg>
