<svg width="21" height="22" viewBox="0 0 21 22" fill="none" xmlns="http://www.w3.org/2000/svg">
<path d="M1.72915 4.33333L16.9297 19.9542M1.72915 4.33333C2.2947 3.65369 3.13942 3.22222 4.08316 3.22222H9.22177M1.72915 4.33333C1.27429 4.87996 1 5.58712 1 6.35948V17.8627C1 19.5954 2.38038 21 4.08316 21H15.3881C17.0909 21 18.4713 19.5954 18.4713 17.8627V13.1569M9.22177 13.1569L2.54158 19.9542M16.5057 4.55556V4.48872M20 4.47826C20 6.7971 16.5057 9.88889 16.5057 9.88889C16.5057 9.88889 13.0115 6.7971 13.0115 4.47826C13.0115 2.55727 14.5759 1 16.5057 1C18.4356 1 20 2.55727 20 4.47826Z" stroke="#520660" stroke-width="2" stroke-linecap="round" stroke-linejoin="round"/>
</svg>
