<svg width="34" height="31" viewBox="0 0 34 31" fill="none" xmlns="http://www.w3.org/2000/svg">
<path d="M19.8333 12.6818C19.8333 14.1177 19.397 15.4493 18.6547 16.5625L14.5817 12.5113C14.3154 12.2464 14.1667 11.8885 14.1667 11.5151V5.77868C17.3995 6.43109 19.8333 9.27323 19.8333 12.6818ZM11.3333 12.0985V5.77868C7.72083 6.50859 5.10567 9.97214 5.77008 13.9049C6.2305 16.6301 8.34842 18.8973 11.0528 19.53C13.1353 20.0161 15.1045 19.5765 16.6515 18.5563L12.1621 14.0909C11.6308 13.5625 11.3333 12.8453 11.3333 12.0985ZM26.9167 5.63636H24.0833C23.2999 5.63636 22.6667 6.26764 22.6667 7.04545C22.6667 7.82327 23.2999 8.45455 24.0833 8.45455H26.9167C27.7001 8.45455 28.3333 7.82327 28.3333 7.04545C28.3333 6.26764 27.7001 5.63636 26.9167 5.63636ZM26.9167 11.2727H24.0833C23.2999 11.2727 22.6667 11.904 22.6667 12.6818C22.6667 13.4596 23.2999 14.0909 24.0833 14.0909H26.9167C27.7001 14.0909 28.3333 13.4596 28.3333 12.6818C28.3333 11.904 27.7001 11.2727 26.9167 11.2727ZM26.9167 16.9091H24.0833C23.2999 16.9091 22.6667 17.5404 22.6667 18.3182C22.6667 19.096 23.2999 19.7273 24.0833 19.7273H26.9167C27.7001 19.7273 28.3333 19.096 28.3333 18.3182C28.3333 17.5404 27.7001 16.9091 26.9167 16.9091ZM34 7.04545V18.3182C34 22.203 30.8224 25.3636 26.9167 25.3636H18.4167V28.1818H24.0833C24.8667 28.1818 25.5 28.8131 25.5 29.5909C25.5 30.3687 24.8667 31 24.0833 31H9.91667C9.13325 31 8.5 30.3687 8.5 29.5909C8.5 28.8131 9.13325 28.1818 9.91667 28.1818H15.5833V25.3636H7.08333C3.17758 25.3636 0 22.203 0 18.3182V7.04545C0 3.16059 3.17758 0 7.08333 0H26.9167C30.8224 0 34 3.16059 34 7.04545ZM31.1667 7.04545C31.1667 4.71482 29.2598 2.81818 26.9167 2.81818H7.08333C4.74017 2.81818 2.83333 4.71482 2.83333 7.04545V18.3182C2.83333 20.6488 4.74017 22.5455 7.08333 22.5455H26.9167C29.2598 22.5455 31.1667 20.6488 31.1667 18.3182V7.04545Z" fill="#520660"/>
</svg>
