<svg width="146" height="29" viewBox="0 0 146 29" fill="none" xmlns="http://www.w3.org/2000/svg" class="me-2">
<path d="M33.75 22.73C33.22 22.12 32.75 21.455 32.34 20.735C31.94 20.025 31.63 19.24 31.41 18.38C31.19 17.51 31.08 16.545 31.08 15.485C31.08 14.425 31.19 13.465 31.41 12.605C31.64 11.745 31.955 10.965 32.355 10.265C32.765 9.565 33.23 8.93 33.75 8.36H35.4C34.78 9.03 34.25 9.725 33.81 10.445C33.38 11.165 33.05 11.94 32.82 12.77C32.6 13.59 32.49 14.495 32.49 15.485C32.49 16.475 32.6 17.39 32.82 18.23C33.04 19.06 33.365 19.84 33.795 20.57C34.235 21.31 34.77 22.03 35.4 22.73H33.75ZM40.4096 20.27C39.6296 20.27 38.9346 20.13 38.3246 19.85C37.7246 19.57 37.2496 19.18 36.8996 18.68C36.5596 18.18 36.3896 17.6 36.3896 16.94C36.3896 16.5 36.4746 16.105 36.6446 15.755C36.8146 15.395 37.0496 15.085 37.3496 14.825C37.6496 14.565 37.9896 14.365 38.3696 14.225V14.075C38.0696 13.945 37.7946 13.77 37.5446 13.55C37.3046 13.33 37.1096 13.07 36.9596 12.77C36.8196 12.47 36.7496 12.13 36.7496 11.75C36.7496 11.12 36.9146 10.585 37.2446 10.145C37.5846 9.705 38.0296 9.37 38.5796 9.14C39.1396 8.9 39.7496 8.78 40.4096 8.78C41.0796 8.78 41.6896 8.9 42.2396 9.14C42.7996 9.37 43.2446 9.705 43.5746 10.145C43.9046 10.585 44.0696 11.12 44.0696 11.75C44.0696 12.13 43.9996 12.47 43.8596 12.77C43.7196 13.07 43.5246 13.33 43.2746 13.55C43.0346 13.77 42.7596 13.945 42.4496 14.075V14.225C42.8396 14.365 43.1846 14.57 43.4846 14.84C43.7846 15.1 44.0196 15.41 44.1896 15.77C44.3596 16.12 44.4446 16.51 44.4446 16.94C44.4446 17.6 44.2696 18.18 43.9196 18.68C43.5796 19.18 43.1046 19.57 42.4946 19.85C41.8946 20.13 41.1996 20.27 40.4096 20.27ZM40.4096 19.04C40.9596 19.04 41.4296 18.955 41.8196 18.785C42.2096 18.605 42.5096 18.355 42.7196 18.035C42.9296 17.705 43.0346 17.32 43.0346 16.88C43.0346 16.44 42.9296 16.06 42.7196 15.74C42.5196 15.42 42.2246 15.175 41.8346 15.005C41.4446 14.825 40.9696 14.735 40.4096 14.735C39.8596 14.735 39.3896 14.825 38.9996 15.005C38.6096 15.175 38.3096 15.42 38.0996 15.74C37.8996 16.06 37.7996 16.44 37.7996 16.88C37.7996 17.32 37.8996 17.705 38.0996 18.035C38.3096 18.355 38.6096 18.605 38.9996 18.785C39.3896 18.955 39.8596 19.04 40.4096 19.04ZM40.4096 13.595C41.0896 13.595 41.6346 13.45 42.0446 13.16C42.4546 12.86 42.6596 12.405 42.6596 11.795C42.6596 11.175 42.4496 10.725 42.0296 10.445C41.6196 10.155 41.0796 10.01 40.4096 10.01C39.7396 10.01 39.1946 10.155 38.7746 10.445C38.3646 10.735 38.1596 11.185 38.1596 11.795C38.1596 12.405 38.3646 12.86 38.7746 13.16C39.1946 13.45 39.7396 13.595 40.4096 13.595ZM49.9304 20.27C49.0904 20.27 48.3804 20.1 47.8004 19.76C47.2204 19.41 46.7804 18.955 46.4804 18.395C46.1804 17.835 46.0304 17.24 46.0304 16.61H47.4404C47.4404 17.07 47.5404 17.48 47.7404 17.84C47.9504 18.2 48.2404 18.485 48.6104 18.695C48.9804 18.905 49.4204 19.01 49.9304 19.01C50.4304 19.01 50.8654 18.91 51.2354 18.71C51.6154 18.5 51.9104 18.215 52.1204 17.855C52.3304 17.485 52.4354 17.07 52.4354 16.61C52.4354 16.15 52.3304 15.735 52.1204 15.365C51.9204 14.995 51.6304 14.7 51.2504 14.48C50.8804 14.26 50.4404 14.15 49.9304 14.15C49.5604 14.15 49.1854 14.215 48.8054 14.345C48.4254 14.465 48.1204 14.64 47.8904 14.87H46.5704L47.1254 9.05H52.8704V10.28H47.9654L48.3254 9.785L47.9054 14.03L47.5154 13.895C47.8054 13.605 48.1554 13.375 48.5654 13.205C48.9854 13.035 49.4604 12.95 49.9904 12.95C50.8304 12.95 51.5354 13.125 52.1054 13.475C52.6754 13.815 53.1054 14.26 53.3954 14.81C53.6954 15.35 53.8454 15.915 53.8454 16.505V16.715C53.8454 17.305 53.6954 17.875 53.3954 18.425C53.0954 18.965 52.6504 19.41 52.0604 19.76C51.4804 20.1 50.7704 20.27 49.9304 20.27ZM56.4261 22.73H54.7761C55.4061 22.03 55.9361 21.31 56.3661 20.57C56.8061 19.84 57.1361 19.06 57.3561 18.23C57.5761 17.39 57.6861 16.475 57.6861 15.485C57.6861 14.495 57.5711 13.59 57.3411 12.77C57.1211 11.94 56.7911 11.165 56.3511 10.445C55.9211 9.725 55.3961 9.03 54.7761 8.36H56.4261C56.9461 8.93 57.4061 9.565 57.8061 10.265C58.2161 10.965 58.5311 11.745 58.7511 12.605C58.9811 13.465 59.0961 14.425 59.0961 15.485C59.0961 16.545 58.9861 17.51 58.7661 18.38C58.5461 19.24 58.2311 20.025 57.8211 20.735C57.4211 21.455 56.9561 22.12 56.4261 22.73ZM68.0739 20.27C67.2539 20.27 66.5589 20.11 65.9889 19.79C65.4189 19.47 64.9839 19.045 64.6839 18.515C64.3939 17.985 64.2489 17.41 64.2489 16.79H65.6589C65.6589 17.47 65.8739 18.01 66.3039 18.41C66.7439 18.81 67.3339 19.01 68.0739 19.01C68.5639 19.01 68.9889 18.92 69.3489 18.74C69.7089 18.56 69.9889 18.305 70.1889 17.975C70.3889 17.635 70.4889 17.24 70.4889 16.79C70.4889 16.11 70.2689 15.56 69.8289 15.14C69.3989 14.72 68.8189 14.51 68.0889 14.51C67.7789 14.51 67.5089 14.55 67.2789 14.63C67.0589 14.7 66.8639 14.79 66.6939 14.9L65.9739 13.61L70.1589 10.55L70.0089 10.28H64.6839V9.05H71.3589V11.045L67.8939 13.565L66.8439 13.61C67.0139 13.55 67.1989 13.5 67.3989 13.46C67.6089 13.42 67.8539 13.4 68.1339 13.4C68.9339 13.4 69.6139 13.55 70.1739 13.85C70.7339 14.15 71.1589 14.55 71.4489 15.05C71.7489 15.55 71.8989 16.095 71.8989 16.685V16.895C71.8989 17.475 71.7489 18.025 71.4489 18.545C71.1589 19.055 70.7289 19.47 70.1589 19.79C69.5989 20.11 68.9039 20.27 68.0739 20.27ZM78.3827 20.27C77.5627 20.27 76.8627 20.13 76.2827 19.85C75.7127 19.56 75.2477 19.17 74.8877 18.68C74.5377 18.19 74.2827 17.625 74.1227 16.985C73.9627 16.335 73.8827 15.65 73.8827 14.93V14.12C73.8827 13.11 74.0377 12.2 74.3477 11.39C74.6677 10.58 75.1577 9.94 75.8177 9.47C76.4877 8.99 77.3427 8.75 78.3827 8.75C79.4227 8.75 80.2727 8.99 80.9327 9.47C81.5927 9.94 82.0777 10.58 82.3877 11.39C82.7077 12.2 82.8677 13.11 82.8677 14.12V14.93C82.8677 15.65 82.7877 16.335 82.6277 16.985C82.4677 17.625 82.2077 18.19 81.8477 18.68C81.4977 19.17 81.0377 19.56 80.4677 19.85C79.8977 20.13 79.2027 20.27 78.3827 20.27ZM78.3827 18.95C79.4227 18.95 80.1827 18.6 80.6627 17.9C81.1527 17.19 81.3977 16.07 81.3977 14.54C81.3977 12.94 81.1477 11.795 80.6477 11.105C80.1577 10.415 79.4027 10.07 78.3827 10.07C77.3527 10.07 76.5877 10.415 76.0877 11.105C75.5977 11.795 75.3527 12.93 75.3527 14.51C75.3527 16.05 75.5977 17.175 76.0877 17.885C76.5777 18.595 77.3427 18.95 78.3827 18.95ZM88.4352 20.27C87.6152 20.27 86.9202 20.11 86.3502 19.79C85.7802 19.47 85.3452 19.045 85.0452 18.515C84.7552 17.985 84.6102 17.41 84.6102 16.79H86.0202C86.0202 17.47 86.2352 18.01 86.6652 18.41C87.1052 18.81 87.6952 19.01 88.4352 19.01C88.9252 19.01 89.3502 18.92 89.7102 18.74C90.0702 18.56 90.3502 18.305 90.5502 17.975C90.7502 17.635 90.8502 17.24 90.8502 16.79C90.8502 16.11 90.6302 15.56 90.1902 15.14C89.7602 14.72 89.1802 14.51 88.4502 14.51C88.1402 14.51 87.8702 14.55 87.6402 14.63C87.4202 14.7 87.2252 14.79 87.0552 14.9L86.3352 13.61L90.5202 10.55L90.3702 10.28H85.0452V9.05H91.7202V11.045L88.2552 13.565L87.2052 13.61C87.3752 13.55 87.5602 13.5 87.7602 13.46C87.9702 13.42 88.2152 13.4 88.4952 13.4C89.2952 13.4 89.9752 13.55 90.5352 13.85C91.0952 14.15 91.5202 14.55 91.8102 15.05C92.1102 15.55 92.2602 16.095 92.2602 16.685V16.895C92.2602 17.475 92.1102 18.025 91.8102 18.545C91.5202 19.055 91.0902 19.47 90.5202 19.79C89.9602 20.11 89.2652 20.27 88.4352 20.27ZM96.2241 20V9.77L96.8841 10.28H93.7941V9.05H97.6641V20H96.2241ZM100.453 16.445V15.215H106.033V16.445H100.453ZM107.741 17.405V15.635L112.286 8.78L113.291 9.575L109.046 15.995L109.181 16.265H116.261V17.405H107.741ZM113.456 20V12.245H114.806V20H113.456ZM118.806 20L123.441 10.415L123.351 10.28H117.366V9.05H124.716V10.79L120.306 20H118.806ZM117.366 12.02V9.05H118.566V12.02H117.366ZM130.494 20.3C129.694 20.3 129.024 20.16 128.484 19.88C127.954 19.6 127.529 19.22 127.209 18.74C126.899 18.25 126.674 17.69 126.534 17.06C126.404 16.43 126.339 15.77 126.339 15.08V14.36C126.339 12.63 126.769 11.3 127.629 10.37C128.489 9.43 129.734 8.96 131.364 8.96C131.754 8.96 132.084 8.97 132.354 8.99C132.624 9.01 132.919 9.04 133.239 9.08V10.31C132.909 10.27 132.604 10.24 132.324 10.22C132.044 10.2 131.704 10.19 131.304 10.19C130.394 10.19 129.674 10.36 129.144 10.7C128.614 11.04 128.234 11.53 128.004 12.17C127.774 12.8 127.659 13.565 127.659 14.465V15.14L127.299 16.475C127.309 15.685 127.459 15.03 127.749 14.51C128.049 13.99 128.454 13.6 128.964 13.34C129.484 13.08 130.079 12.95 130.749 12.95C131.529 12.95 132.189 13.11 132.729 13.43C133.269 13.74 133.674 14.17 133.944 14.72C134.224 15.27 134.364 15.895 134.364 16.595C134.364 17.305 134.219 17.94 133.929 18.5C133.639 19.06 133.204 19.5 132.624 19.82C132.054 20.14 131.344 20.3 130.494 20.3ZM130.494 19.04C131.044 19.04 131.504 18.935 131.874 18.725C132.244 18.515 132.519 18.23 132.699 17.87C132.889 17.5 132.984 17.075 132.984 16.595C132.984 16.115 132.894 15.69 132.714 15.32C132.534 14.95 132.264 14.665 131.904 14.465C131.554 14.255 131.119 14.15 130.599 14.15C130.089 14.15 129.629 14.245 129.219 14.435C128.819 14.625 128.504 14.905 128.274 15.275C128.044 15.635 127.929 16.08 127.929 16.61C127.929 17.05 128.019 17.455 128.199 17.825C128.379 18.195 128.659 18.49 129.039 18.71C129.419 18.93 129.904 19.04 130.494 19.04ZM140.381 20.3C139.581 20.3 138.911 20.16 138.371 19.88C137.841 19.6 137.416 19.22 137.096 18.74C136.786 18.25 136.561 17.69 136.421 17.06C136.291 16.43 136.226 15.77 136.226 15.08V14.36C136.226 12.63 136.656 11.3 137.516 10.37C138.376 9.43 139.621 8.96 141.251 8.96C141.641 8.96 141.971 8.97 142.241 8.99C142.511 9.01 142.806 9.04 143.126 9.08V10.31C142.796 10.27 142.491 10.24 142.211 10.22C141.931 10.2 141.591 10.19 141.191 10.19C140.281 10.19 139.561 10.36 139.031 10.7C138.501 11.04 138.121 11.53 137.891 12.17C137.661 12.8 137.546 13.565 137.546 14.465V15.14L137.186 16.475C137.196 15.685 137.346 15.03 137.636 14.51C137.936 13.99 138.341 13.6 138.851 13.34C139.371 13.08 139.966 12.95 140.636 12.95C141.416 12.95 142.076 13.11 142.616 13.43C143.156 13.74 143.561 14.17 143.831 14.72C144.111 15.27 144.251 15.895 144.251 16.595C144.251 17.305 144.106 17.94 143.816 18.5C143.526 19.06 143.091 19.5 142.511 19.82C141.941 20.14 141.231 20.3 140.381 20.3ZM140.381 19.04C140.931 19.04 141.391 18.935 141.761 18.725C142.131 18.515 142.406 18.23 142.586 17.87C142.776 17.5 142.871 17.075 142.871 16.595C142.871 16.115 142.781 15.69 142.601 15.32C142.421 14.95 142.151 14.665 141.791 14.465C141.441 14.255 141.006 14.15 140.486 14.15C139.976 14.15 139.516 14.245 139.106 14.435C138.706 14.625 138.391 14.905 138.161 15.275C137.931 15.635 137.816 16.08 137.816 16.61C137.816 17.05 137.906 17.455 138.086 17.825C138.266 18.195 138.546 18.49 138.926 18.71C139.306 18.93 139.791 19.04 140.381 19.04Z" fill="white"/>
<path d="M3 6H7L9 11L6.5 12.5C7.57096 14.6715 9.32847 16.429 11.5 17.5L13 15L18 17V21C18 21.5304 17.7893 22.0391 17.4142 22.4142C17.0391 22.7893 16.5304 23 16 23C12.0993 22.763 8.42015 21.1065 5.65683 18.3432C2.8935 15.5798 1.23705 11.9007 1 8C1 7.46957 1.21071 6.96086 1.58579 6.58579C1.96086 6.21071 2.46957 6 3 6Z" stroke="white" stroke-width="2" stroke-linecap="round" stroke-linejoin="round"/>
</svg>
