<svg width="36" height="36" viewBox="0 0 36 36" fill="none" xmlns="http://www.w3.org/2000/svg">
<path d="M17.7856 6.01828C11.5072 6.12173 6.21765 11.3043 5.99406 17.5693C5.86201 21.2093 7.36559 24.6648 10.1207 27.053C11.3076 28.0829 11.9874 29.666 11.9874 31.5025C11.9874 33.9821 14.0072 36 16.4891 36H19.4903C21.9722 36 23.992 33.9821 23.992 31.5025V30.9403C23.992 29.4921 24.6748 28.0949 25.9158 27.0035C28.5088 24.7278 29.9943 21.4506 29.9943 18.0101C29.9943 14.7704 28.7203 11.7331 26.4079 9.46036C24.0956 7.18763 21.0314 5.94483 17.7856 6.01828ZM20.9909 31.5025C20.9909 32.3301 20.3186 33.0017 19.4903 33.0017H16.4891C15.6608 33.0017 14.9885 32.3301 14.9885 31.3991C14.9885 30.9253 14.942 30.4606 14.873 30.0034H21.0524C21.0149 30.3122 20.9909 30.6255 20.9909 30.9403V31.5025ZM23.935 24.7518C23.1682 25.4249 22.55 26.1865 22.0743 27.005H19.4903V20.7325C21.2324 20.1119 22.4914 18.4628 22.4914 16.5109C22.4914 15.6819 21.8207 15.0117 20.9909 15.0117C20.161 15.0117 19.4903 15.6819 19.4903 16.5109C19.4903 17.3399 18.818 18.0101 17.9897 18.0101C17.1614 18.0101 16.4891 17.3384 16.4891 16.5109C16.4891 15.6834 15.8184 15.0117 14.9885 15.0117C14.1587 15.0117 13.488 15.6819 13.488 16.5109C13.488 18.4628 14.7469 20.1119 16.4891 20.7325V27.005H13.8691C13.4039 26.1685 12.8082 25.4159 12.0864 24.7893C10.0216 22.9978 8.89318 20.4057 8.99222 17.6773C9.16028 12.9789 13.1278 9.09306 17.8366 9.01661C17.8877 9.01661 17.9372 9.01661 17.9897 9.01661C20.3696 9.01661 22.607 9.92959 24.3041 11.5997C26.0388 13.3042 26.9947 15.5814 26.9947 18.0116C26.9947 20.5901 25.8797 23.0457 23.9365 24.7533L23.935 24.7518ZM25.17 3.72907L27.0232 0.715753C27.4553 0.00814897 28.3797 -0.212228 29.0865 0.224028C29.7933 0.657286 30.0138 1.57927 29.5787 2.28537L27.7255 5.29869C27.4433 5.76043 26.9497 6.01379 26.4455 6.01379C26.1769 6.01379 25.9068 5.94183 25.6622 5.79191C24.9554 5.35865 24.7348 4.43517 25.17 3.72907ZM35.1158 9.94759L32.2152 11.2549C32.0156 11.3463 31.8055 11.3883 31.5999 11.3883C31.0267 11.3883 30.482 11.06 30.2314 10.5053C29.8893 9.75119 30.2254 8.86219 30.9817 8.52338L33.8823 7.21611C34.6416 6.87281 35.527 7.21162 35.8661 7.96569C36.2082 8.71977 35.8721 9.60878 35.1158 9.94759ZM6.27617 2.28387C5.8425 1.57777 6.06459 0.654287 6.77136 0.222529C7.48114 -0.209229 8.40249 0.0126464 8.83466 0.717252L10.6834 3.73206C11.117 4.43817 10.895 5.36165 10.1882 5.79341C9.94359 5.94333 9.67198 6.01379 9.40638 6.01379C8.90068 6.01379 8.40849 5.75893 8.12488 5.29719L6.27617 2.28238V2.28387ZM5.55139 10.6057C5.29479 11.1439 4.75758 11.4572 4.19787 11.4572C3.98028 11.4572 3.7597 11.4108 3.55112 11.3088L0.853077 10.018C0.105788 9.66125 -0.210834 8.76625 0.147804 8.01966C0.503442 7.27158 1.40379 6.95226 2.14808 7.31506L4.84612 8.60584C5.59341 8.96264 5.91003 9.85913 5.55139 10.6057Z" fill="#520660"/>
</svg>
