<svg width="28" height="21" viewBox="0 0 28 21" fill="none" xmlns="http://www.w3.org/2000/svg">
<path fill-rule="evenodd" clip-rule="evenodd" d="M0.929088 13.8848C-1.75887 8.16297 1.77069 1.87425 6.58985 0.417964C11.857 -1.17437 16.3162 2.02038 17.3235 5.98862C17.3235 5.98862 17.6861 7.46254 17.4375 8.81048C17.1889 10.2265 16.5518 11.5038 15.6455 12.5167L15.6403 12.5217C15.6403 12.5217 11.4401 17.2131 6.08747 13.59C5.83888 13.4212 6.03568 13.1743 6.29205 13.3179C7.17767 13.8117 8.24975 14.24 9.41246 14.24C12.8048 14.24 15.5575 11.5643 15.5575 8.26123C15.5575 4.95814 12.8048 2.28997 9.41246 2.28997C7.6671 2.28997 6.09006 3.00047 4.97138 4.13677C2.62265 6.30104 2.06072 9.87372 3.44872 12.6553C6.22731 18.2158 13.7189 16.3968 14.967 15.6888C16.2489 15.069 19.2191 13.3481 20.1643 7.29121C20.242 6.80243 20.6356 3.43887 21.1431 2.39327L21.1509 2.37815C22.7978 -0.50418 27.9122 1.7911 27.9977 6.3086C28.254 19.7049 7.3201 27.4877 0.929088 13.8848Z" fill="white"/>
</svg>
